<svg xmlns="http://www.w3.org/2000/svg" viewBox="0 0 1024 1024" width="1024" height="1024">
  <defs>
    <!-- macOS squircle clip -->
    <clipPath id="squircle">
      <rect x="0" y="0" width="1024" height="1024" rx="224" ry="224"/>
    </clipPath>

    <!-- Pixelated dark background pattern — 32px grid -->
    <pattern id="pixBg" width="32" height="32" patternUnits="userSpaceOnUse">
      <rect width="32" height="32" fill="#0C0C14"/>
      <rect width="31" height="31" fill="#0E0E16"/>
      <rect x="31" width="1" height="32" fill="#08080F" opacity="0.5"/>
      <rect y="31" width="32" height="1" fill="#08080F" opacity="0.5"/>
    </pattern>

    <!-- Secondary pixel noise texture — varied dark tiles -->
    <pattern id="pixNoise" width="64" height="64" patternUnits="userSpaceOnUse">
      <rect width="64" height="64" fill="transparent"/>
      <rect x="0"  y="0"  width="32" height="32" fill="#0F0F1A" opacity="0.6"/>
      <rect x="32" y="0"  width="32" height="32" fill="#0B0B14" opacity="0.5"/>
      <rect x="0"  y="32" width="32" height="32" fill="#0D0D18" opacity="0.4"/>
      <rect x="32" y="32" width="32" height="32" fill="#101020" opacity="0.5"/>
    </pattern>

    <!-- Brain ambient glow -->
    <radialGradient id="brainGlow" cx="50%" cy="48%" r="32%">
      <stop offset="0%" style="stop-color:#7C3AED;stop-opacity:0.2"/>
      <stop offset="50%" style="stop-color:#4C1D95;stop-opacity:0.08"/>
      <stop offset="100%" style="stop-color:#000000;stop-opacity:0"/>
    </radialGradient>

    <!-- macOS translucent glass overlay -->
    <linearGradient id="glassOverlay" x1="0%" y1="0%" x2="50%" y2="100%">
      <stop offset="0%" style="stop-color:#FFFFFF;stop-opacity:0.08"/>
      <stop offset="30%" style="stop-color:#FFFFFF;stop-opacity:0.04"/>
      <stop offset="60%" style="stop-color:#FFFFFF;stop-opacity:0"/>
      <stop offset="100%" style="stop-color:#FFFFFF;stop-opacity:0"/>
    </linearGradient>

    <!-- Inner edge highlight — macOS native depth -->
    <linearGradient id="innerEdge" x1="0%" y1="0%" x2="0%" y2="100%">
      <stop offset="0%" style="stop-color:#FFFFFF;stop-opacity:0.06"/>
      <stop offset="10%" style="stop-color:#FFFFFF;stop-opacity:0.02"/>
      <stop offset="90%" style="stop-color:#000000;stop-opacity:0"/>
      <stop offset="100%" style="stop-color:#000000;stop-opacity:0.15"/>
    </linearGradient>

    <!-- Pixel gradients for brain -->
    <linearGradient id="pixPurple" x1="0%" y1="0%" x2="0%" y2="100%">
      <stop offset="0%" style="stop-color:#A78BFA"/>
      <stop offset="100%" style="stop-color:#7C3AED"/>
    </linearGradient>
    <linearGradient id="pixIndigo" x1="0%" y1="0%" x2="0%" y2="100%">
      <stop offset="0%" style="stop-color:#818CF8"/>
      <stop offset="100%" style="stop-color:#6366F1"/>
    </linearGradient>
    <linearGradient id="pixCyan" x1="0%" y1="0%" x2="0%" y2="100%">
      <stop offset="0%" style="stop-color:#67E8F9"/>
      <stop offset="100%" style="stop-color:#22D3EE"/>
    </linearGradient>
    <linearGradient id="pixDeep" x1="0%" y1="0%" x2="0%" y2="100%">
      <stop offset="0%" style="stop-color:#6D28D9"/>
      <stop offset="100%" style="stop-color:#4C1D95"/>
    </linearGradient>
    <linearGradient id="pixDim" x1="0%" y1="0%" x2="0%" y2="100%">
      <stop offset="0%" style="stop-color:#4338CA"/>
      <stop offset="100%" style="stop-color:#312E81"/>
    </linearGradient>
    <linearGradient id="pixBright" x1="0%" y1="0%" x2="0%" y2="100%">
      <stop offset="0%" style="stop-color:#C4B5FD"/>
      <stop offset="100%" style="stop-color:#A78BFA"/>
    </linearGradient>

    <!-- Pixel shadow for brain -->
    <filter id="pixelShadow">
      <feDropShadow dx="0" dy="4" stdDeviation="12" flood-color="#7C3AED" flood-opacity="0.4"/>
    </filter>

    <!-- Subtle outer glow around brain -->
    <filter id="brainOuterGlow">
      <feGaussianBlur in="SourceGraphic" stdDeviation="8" result="blur"/>
      <feColorMatrix in="blur" type="matrix" values="0.5 0 0 0 0.3  0 0.2 0 0 0.1  0 0 0.9 0 0.5  0 0 0 0.3 0" result="colorBlur"/>
      <feMerge>
        <feMergeNode in="colorBlur"/>
        <feMergeNode in="SourceGraphic"/>
      </feMerge>
    </filter>

    <!-- Vignette -->
    <radialGradient id="vignette" cx="50%" cy="50%" r="55%">
      <stop offset="60%" style="stop-color:transparent"/>
      <stop offset="100%" style="stop-color:black;stop-opacity:0.5"/>
    </radialGradient>
  </defs>

  <!-- Clipped content in macOS squircle -->
  <g clip-path="url(#squircle)">

    <!-- Layer 1: Pixelated dark background grid -->
    <rect width="1024" height="1024" fill="#0A0A12"/>
    <rect width="1024" height="1024" fill="url(#pixBg)"/>
    <rect width="1024" height="1024" fill="url(#pixNoise)"/>

    <!-- Layer 2: Extra pixel grid lines for visible pixel texture -->
    <g opacity="0.15">
      <!-- Vertical pixel grid lines -->
      <line x1="32" y1="0" x2="32" y2="1024" stroke="#1a1a2e" stroke-width="0.5"/>
      <line x1="64" y1="0" x2="64" y2="1024" stroke="#1a1a2e" stroke-width="0.5"/>
      <line x1="96" y1="0" x2="96" y2="1024" stroke="#1a1a2e" stroke-width="0.5"/>
      <line x1="128" y1="0" x2="128" y2="1024" stroke="#1a1a2e" stroke-width="0.5"/>
      <line x1="160" y1="0" x2="160" y2="1024" stroke="#1a1a2e" stroke-width="0.5"/>
      <line x1="192" y1="0" x2="192" y2="1024" stroke="#1a1a2e" stroke-width="0.5"/>
      <line x1="224" y1="0" x2="224" y2="1024" stroke="#1a1a2e" stroke-width="0.5"/>
      <line x1="256" y1="0" x2="256" y2="1024" stroke="#1a1a2e" stroke-width="0.5"/>
      <line x1="288" y1="0" x2="288" y2="1024" stroke="#1a1a2e" stroke-width="0.5"/>
      <line x1="320" y1="0" x2="320" y2="1024" stroke="#1a1a2e" stroke-width="0.5"/>
      <line x1="352" y1="0" x2="352" y2="1024" stroke="#1a1a2e" stroke-width="0.5"/>
      <line x1="384" y1="0" x2="384" y2="1024" stroke="#1a1a2e" stroke-width="0.5"/>
      <line x1="416" y1="0" x2="416" y2="1024" stroke="#1a1a2e" stroke-width="0.5"/>
      <line x1="448" y1="0" x2="448" y2="1024" stroke="#1a1a2e" stroke-width="0.5"/>
      <line x1="480" y1="0" x2="480" y2="1024" stroke="#1a1a2e" stroke-width="0.5"/>
      <line x1="512" y1="0" x2="512" y2="1024" stroke="#1a1a2e" stroke-width="0.5"/>
      <line x1="544" y1="0" x2="544" y2="1024" stroke="#1a1a2e" stroke-width="0.5"/>
      <line x1="576" y1="0" x2="576" y2="1024" stroke="#1a1a2e" stroke-width="0.5"/>
      <line x1="608" y1="0" x2="608" y2="1024" stroke="#1a1a2e" stroke-width="0.5"/>
      <line x1="640" y1="0" x2="640" y2="1024" stroke="#1a1a2e" stroke-width="0.5"/>
      <line x1="672" y1="0" x2="672" y2="1024" stroke="#1a1a2e" stroke-width="0.5"/>
      <line x1="704" y1="0" x2="704" y2="1024" stroke="#1a1a2e" stroke-width="0.5"/>
      <line x1="736" y1="0" x2="736" y2="1024" stroke="#1a1a2e" stroke-width="0.5"/>
      <line x1="768" y1="0" x2="768" y2="1024" stroke="#1a1a2e" stroke-width="0.5"/>
      <line x1="800" y1="0" x2="800" y2="1024" stroke="#1a1a2e" stroke-width="0.5"/>
      <line x1="832" y1="0" x2="832" y2="1024" stroke="#1a1a2e" stroke-width="0.5"/>
      <line x1="864" y1="0" x2="864" y2="1024" stroke="#1a1a2e" stroke-width="0.5"/>
      <line x1="896" y1="0" x2="896" y2="1024" stroke="#1a1a2e" stroke-width="0.5"/>
      <line x1="928" y1="0" x2="928" y2="1024" stroke="#1a1a2e" stroke-width="0.5"/>
      <line x1="960" y1="0" x2="960" y2="1024" stroke="#1a1a2e" stroke-width="0.5"/>
      <line x1="992" y1="0" x2="992" y2="1024" stroke="#1a1a2e" stroke-width="0.5"/>
      <!-- Horizontal pixel grid lines -->
      <line x1="0" y1="32" x2="1024" y2="32" stroke="#1a1a2e" stroke-width="0.5"/>
      <line x1="0" y1="64" x2="1024" y2="64" stroke="#1a1a2e" stroke-width="0.5"/>
      <line x1="0" y1="96" x2="1024" y2="96" stroke="#1a1a2e" stroke-width="0.5"/>
      <line x1="0" y1="128" x2="1024" y2="128" stroke="#1a1a2e" stroke-width="0.5"/>
      <line x1="0" y1="160" x2="1024" y2="160" stroke="#1a1a2e" stroke-width="0.5"/>
      <line x1="0" y1="192" x2="1024" y2="192" stroke="#1a1a2e" stroke-width="0.5"/>
      <line x1="0" y1="224" x2="1024" y2="224" stroke="#1a1a2e" stroke-width="0.5"/>
      <line x1="0" y1="256" x2="1024" y2="256" stroke="#1a1a2e" stroke-width="0.5"/>
      <line x1="0" y1="288" x2="1024" y2="288" stroke="#1a1a2e" stroke-width="0.5"/>
      <line x1="0" y1="320" x2="1024" y2="320" stroke="#1a1a2e" stroke-width="0.5"/>
      <line x1="0" y1="352" x2="1024" y2="352" stroke="#1a1a2e" stroke-width="0.5"/>
      <line x1="0" y1="384" x2="1024" y2="384" stroke="#1a1a2e" stroke-width="0.5"/>
      <line x1="0" y1="416" x2="1024" y2="416" stroke="#1a1a2e" stroke-width="0.5"/>
      <line x1="0" y1="448" x2="1024" y2="448" stroke="#1a1a2e" stroke-width="0.5"/>
      <line x1="0" y1="480" x2="1024" y2="480" stroke="#1a1a2e" stroke-width="0.5"/>
      <line x1="0" y1="512" x2="1024" y2="512" stroke="#1a1a2e" stroke-width="0.5"/>
      <line x1="0" y1="544" x2="1024" y2="544" stroke="#1a1a2e" stroke-width="0.5"/>
      <line x1="0" y1="576" x2="1024" y2="576" stroke="#1a1a2e" stroke-width="0.5"/>
      <line x1="0" y1="608" x2="1024" y2="608" stroke="#1a1a2e" stroke-width="0.5"/>
      <line x1="0" y1="640" x2="1024" y2="640" stroke="#1a1a2e" stroke-width="0.5"/>
      <line x1="0" y1="672" x2="1024" y2="672" stroke="#1a1a2e" stroke-width="0.5"/>
      <line x1="0" y1="704" x2="1024" y2="704" stroke="#1a1a2e" stroke-width="0.5"/>
      <line x1="0" y1="736" x2="1024" y2="736" stroke="#1a1a2e" stroke-width="0.5"/>
      <line x1="0" y1="768" x2="1024" y2="768" stroke="#1a1a2e" stroke-width="0.5"/>
      <line x1="0" y1="800" x2="1024" y2="800" stroke="#1a1a2e" stroke-width="0.5"/>
      <line x1="0" y1="832" x2="1024" y2="832" stroke="#1a1a2e" stroke-width="0.5"/>
      <line x1="0" y1="864" x2="1024" y2="864" stroke="#1a1a2e" stroke-width="0.5"/>
      <line x1="0" y1="896" x2="1024" y2="896" stroke="#1a1a2e" stroke-width="0.5"/>
      <line x1="0" y1="928" x2="1024" y2="928" stroke="#1a1a2e" stroke-width="0.5"/>
      <line x1="0" y1="960" x2="1024" y2="960" stroke="#1a1a2e" stroke-width="0.5"/>
      <line x1="0" y1="992" x2="1024" y2="992" stroke="#1a1a2e" stroke-width="0.5"/>
    </g>

    <!-- Layer 3: Scattered dark pixel variation for organic texture -->
    <g opacity="0.3">
      <rect x="96"  y="96"  width="32" height="32" fill="#14142A"/>
      <rect x="192" y="64"  width="32" height="32" fill="#12121E"/>
      <rect x="768" y="128" width="32" height="32" fill="#14142A"/>
      <rect x="832" y="224" width="32" height="32" fill="#101020"/>
      <rect x="64"  y="320" width="32" height="32" fill="#12121E"/>
      <rect x="128" y="768" width="32" height="32" fill="#14142A"/>
      <rect x="864" y="704" width="32" height="32" fill="#12121E"/>
      <rect x="736" y="832" width="32" height="32" fill="#101020"/>
      <rect x="320" y="896" width="32" height="32" fill="#14142A"/>
      <rect x="640" y="96"  width="32" height="32" fill="#12121E"/>
      <rect x="928" y="480" width="32" height="32" fill="#14142A"/>
      <rect x="64"  y="576" width="32" height="32" fill="#101020"/>
      <rect x="192" y="192" width="32" height="32" fill="#101020"/>
      <rect x="800" y="800" width="32" height="32" fill="#14142A"/>
      <rect x="544" y="928" width="32" height="32" fill="#12121E"/>
      <rect x="352" y="64"  width="32" height="32" fill="#14142A"/>
      <rect x="896" y="352" width="32" height="32" fill="#101020"/>
      <rect x="64"  y="864" width="32" height="32" fill="#12121E"/>
    </g>

    <!-- Layer 4: Brain ambient glow on dark bg -->
    <rect width="1024" height="1024" fill="url(#brainGlow)"/>

    <!-- ═══════════════════════════════════════════════ -->
    <!-- PIXEL ART BRAIN — centered, 32px blocks        -->
    <!-- Larger pixels for cleaner look at small sizes   -->
    <!-- ═══════════════════════════════════════════════ -->

    <g filter="url(#brainOuterGlow)">

      <!-- ~~~ ROW 1 (y=288): Crown ~~~ -->
      <rect x="416" y="288" width="32" height="32" fill="url(#pixDim)"/>
      <rect x="448" y="288" width="32" height="32" fill="url(#pixIndigo)"/>
      <rect x="480" y="288" width="32" height="32" fill="url(#pixPurple)"/>
      <rect x="512" y="288" width="32" height="32" fill="url(#pixPurple)"/>
      <rect x="544" y="288" width="32" height="32" fill="url(#pixIndigo)"/>
      <rect x="576" y="288" width="32" height="32" fill="url(#pixDim)"/>

      <!-- ~~~ ROW 2 (y=320): Expanding ~~~ -->
      <rect x="352" y="320" width="32" height="32" fill="url(#pixDim)"/>
      <rect x="384" y="320" width="32" height="32" fill="url(#pixPurple)"/>
      <rect x="416" y="320" width="32" height="32" fill="url(#pixCyan)"/>
      <rect x="448" y="320" width="32" height="32" fill="url(#pixPurple)"/>
      <rect x="480" y="320" width="32" height="32" fill="url(#pixIndigo)"/>
      <rect x="512" y="320" width="32" height="32" fill="url(#pixPurple)"/>
      <rect x="544" y="320" width="32" height="32" fill="url(#pixCyan)"/>
      <rect x="576" y="320" width="32" height="32" fill="url(#pixPurple)"/>
      <rect x="608" y="320" width="32" height="32" fill="url(#pixDim)"/>

      <!-- ~~~ ROW 3 (y=352): Wide upper ~~~ -->
      <rect x="320" y="352" width="32" height="32" fill="url(#pixDeep)"/>
      <rect x="352" y="352" width="32" height="32" fill="url(#pixPurple)"/>
      <rect x="384" y="352" width="32" height="32" fill="url(#pixIndigo)"/>
      <rect x="416" y="352" width="32" height="32" fill="url(#pixBright)"/>
      <rect x="448" y="352" width="32" height="32" fill="url(#pixPurple)"/>
      <rect x="480" y="352" width="32" height="32" fill="#1a1a2e" opacity="0.5"/>
      <rect x="512" y="352" width="32" height="32" fill="url(#pixPurple)"/>
      <rect x="544" y="352" width="32" height="32" fill="url(#pixBright)"/>
      <rect x="576" y="352" width="32" height="32" fill="url(#pixIndigo)"/>
      <rect x="608" y="352" width="32" height="32" fill="url(#pixPurple)"/>
      <rect x="672" y="352" width="32" height="32" fill="url(#pixDeep)"/>

      <!-- ~~~ ROW 4 (y=384): Left lobe fold ~~~ -->
      <rect x="288" y="384" width="32" height="32" fill="url(#pixDeep)"/>
      <rect x="320" y="384" width="32" height="32" fill="url(#pixIndigo)"/>
      <rect x="352" y="384" width="32" height="32" fill="url(#pixCyan)"/>
      <rect x="384" y="384" width="32" height="32" fill="url(#pixPurple)"/>
      <rect x="416" y="384" width="32" height="32" fill="url(#pixIndigo)"/>
      <rect x="448" y="384" width="32" height="32" fill="url(#pixPurple)"/>
      <rect x="480" y="384" width="32" height="32" fill="#1a1a2e" opacity="0.4"/>
      <rect x="512" y="384" width="32" height="32" fill="url(#pixPurple)"/>
      <rect x="544" y="384" width="32" height="32" fill="url(#pixIndigo)"/>
      <rect x="576" y="384" width="32" height="32" fill="url(#pixPurple)"/>
      <rect x="608" y="384" width="32" height="32" fill="url(#pixCyan)"/>
      <rect x="640" y="384" width="32" height="32" fill="url(#pixIndigo)"/>
      <rect x="672" y="384" width="32" height="32" fill="url(#pixDeep)"/>

      <!-- ~~~ ROW 5 (y=416): Widest — equator ~~~ -->
      <rect x="256" y="416" width="32" height="32" fill="url(#pixDeep)"/>
      <rect x="288" y="416" width="32" height="32" fill="url(#pixPurple)"/>
      <rect x="320" y="416" width="32" height="32" fill="url(#pixBright)"/>
      <rect x="352" y="416" width="32" height="32" fill="url(#pixPurple)"/>
      <rect x="384" y="416" width="32" height="32" fill="url(#pixIndigo)"/>
      <rect x="416" y="416" width="32" height="32" fill="url(#pixCyan)"/>
      <rect x="448" y="416" width="32" height="32" fill="url(#pixPurple)"/>
      <rect x="480" y="416" width="32" height="32" fill="#1a1a2e" opacity="0.35"/>
      <rect x="512" y="416" width="32" height="32" fill="url(#pixPurple)"/>
      <rect x="544" y="416" width="32" height="32" fill="url(#pixCyan)"/>
      <rect x="576" y="416" width="32" height="32" fill="url(#pixIndigo)"/>
      <rect x="608" y="416" width="32" height="32" fill="url(#pixPurple)"/>
      <rect x="640" y="416" width="32" height="32" fill="url(#pixBright)"/>
      <rect x="672" y="416" width="32" height="32" fill="url(#pixPurple)"/>
      <rect x="704" y="416" width="32" height="32" fill="url(#pixDeep)"/>

      <!-- ~~~ ROW 6 (y=448): Mid with sulci ~~~ -->
      <rect x="256" y="448" width="32" height="32" fill="url(#pixDeep)"/>
      <rect x="288" y="448" width="32" height="32" fill="url(#pixIndigo)"/>
      <rect x="320" y="448" width="32" height="32" fill="url(#pixPurple)"/>
      <rect x="352" y="448" width="32" height="32" fill="url(#pixCyan)"/>
      <rect x="384" y="448" width="32" height="32" fill="url(#pixPurple)"/>
      <rect x="416" y="448" width="32" height="32" fill="url(#pixPurple)"/>
      <rect x="448" y="448" width="32" height="32" fill="url(#pixIndigo)"/>
      <rect x="480" y="448" width="32" height="32" fill="#1a1a2e" opacity="0.3"/>
      <rect x="512" y="448" width="32" height="32" fill="url(#pixIndigo)"/>
      <rect x="544" y="448" width="32" height="32" fill="url(#pixPurple)"/>
      <rect x="576" y="448" width="32" height="32" fill="url(#pixPurple)"/>
      <rect x="608" y="448" width="32" height="32" fill="url(#pixCyan)"/>
      <rect x="640" y="448" width="32" height="32" fill="url(#pixPurple)"/>
      <rect x="672" y="448" width="32" height="32" fill="url(#pixIndigo)"/>
      <rect x="704" y="448" width="32" height="32" fill="url(#pixDeep)"/>

      <!-- ~~~ ROW 7 (y=480): Lower mid ~~~ -->
      <rect x="288" y="480" width="32" height="32" fill="url(#pixDeep)"/>
      <rect x="320" y="480" width="32" height="32" fill="url(#pixIndigo)"/>
      <rect x="352" y="480" width="32" height="32" fill="url(#pixPurple)"/>
      <rect x="384" y="480" width="32" height="32" fill="url(#pixPurple)"/>
      <rect x="416" y="480" width="32" height="32" fill="url(#pixCyan)"/>
      <rect x="448" y="480" width="32" height="32" fill="url(#pixPurple)"/>
      <rect x="480" y="480" width="32" height="32" fill="url(#pixDeep)" opacity="0.5"/>
      <rect x="512" y="480" width="32" height="32" fill="url(#pixPurple)"/>
      <rect x="544" y="480" width="32" height="32" fill="url(#pixCyan)"/>
      <rect x="576" y="480" width="32" height="32" fill="url(#pixPurple)"/>
      <rect x="608" y="480" width="32" height="32" fill="url(#pixPurple)"/>
      <rect x="640" y="480" width="32" height="32" fill="url(#pixIndigo)"/>
      <rect x="672" y="480" width="32" height="32" fill="url(#pixDeep)"/>

      <!-- ~~~ ROW 8 (y=512): Tapering ~~~ -->
      <rect x="320" y="512" width="32" height="32" fill="url(#pixDeep)"/>
      <rect x="352" y="512" width="32" height="32" fill="url(#pixPurple)"/>
      <rect x="384" y="512" width="32" height="32" fill="url(#pixCyan)"/>
      <rect x="416" y="512" width="32" height="32" fill="url(#pixIndigo)"/>
      <rect x="448" y="512" width="32" height="32" fill="url(#pixPurple)"/>
      <rect x="480" y="512" width="32" height="32" fill="url(#pixIndigo)"/>
      <rect x="512" y="512" width="32" height="32" fill="url(#pixPurple)"/>
      <rect x="544" y="512" width="32" height="32" fill="url(#pixIndigo)"/>
      <rect x="576" y="512" width="32" height="32" fill="url(#pixCyan)"/>
      <rect x="608" y="512" width="32" height="32" fill="url(#pixPurple)"/>
      <rect x="640" y="512" width="32" height="32" fill="url(#pixDeep)"/>

      <!-- ~~~ ROW 9 (y=544): Narrowing ~~~ -->
      <rect x="352" y="544" width="32" height="32" fill="url(#pixDeep)"/>
      <rect x="384" y="544" width="32" height="32" fill="url(#pixDim)"/>
      <rect x="416" y="544" width="32" height="32" fill="url(#pixPurple)"/>
      <rect x="448" y="544" width="32" height="32" fill="url(#pixPurple)"/>
      <rect x="480" y="544" width="32" height="32" fill="url(#pixPurple)"/>
      <rect x="512" y="544" width="32" height="32" fill="url(#pixPurple)"/>
      <rect x="544" y="544" width="32" height="32" fill="url(#pixPurple)"/>
      <rect x="576" y="544" width="32" height="32" fill="url(#pixDim)"/>
      <rect x="608" y="544" width="32" height="32" fill="url(#pixDeep)"/>

      <!-- ~~~ ROW 10 (y=576): Brain stem ~~~ -->
      <rect x="416" y="576" width="32" height="32" fill="url(#pixDeep)"/>
      <rect x="448" y="576" width="32" height="32" fill="url(#pixDim)"/>
      <rect x="480" y="576" width="32" height="32" fill="url(#pixIndigo)"/>
      <rect x="512" y="576" width="32" height="32" fill="url(#pixDim)"/>
      <rect x="544" y="576" width="32" height="32" fill="url(#pixDeep)"/>

      <!-- Neural pulse highlights — bright cyan sparks -->
      <rect x="416" y="320" width="32" height="32" fill="url(#pixCyan)" opacity="0.9">
        <animate attributeName="opacity" values="0.5;0.95;0.5" dur="1.5s" repeatCount="indefinite"/>
      </rect>
      <rect x="544" y="320" width="32" height="32" fill="url(#pixCyan)" opacity="0.9">
        <animate attributeName="opacity" values="0.6;1;0.6" dur="2s" repeatCount="indefinite"/>
      </rect>
      <rect x="320" y="416" width="32" height="32" fill="url(#pixBright)" opacity="0.85">
        <animate attributeName="opacity" values="0.4;0.9;0.4" dur="1.8s" repeatCount="indefinite"/>
      </rect>
      <rect x="640" y="416" width="32" height="32" fill="url(#pixBright)" opacity="0.85">
        <animate attributeName="opacity" values="0.5;0.95;0.5" dur="2.2s" repeatCount="indefinite"/>
      </rect>
    </g>

    <!-- Floating pixel particles around the brain -->
    <g opacity="0.6">
      <rect x="192" y="384" width="8" height="8" fill="#22D3EE" opacity="0.5">
        <animate attributeName="opacity" values="0.2;0.6;0.2" dur="3s" repeatCount="indefinite"/>
      </rect>
      <rect x="800" y="416" width="8" height="8" fill="#A78BFA" opacity="0.4">
        <animate attributeName="opacity" values="0.2;0.7;0.2" dur="2.5s" repeatCount="indefinite"/>
      </rect>
      <rect x="224" y="544" width="6" height="6" fill="#67E8F9" opacity="0.35">
        <animate attributeName="opacity" values="0.15;0.5;0.15" dur="4s" repeatCount="indefinite"/>
      </rect>
      <rect x="768" y="320" width="6" height="6" fill="#818CF8" opacity="0.4">
        <animate attributeName="opacity" values="0.2;0.6;0.2" dur="3.5s" repeatCount="indefinite"/>
      </rect>
      <rect x="160" y="288" width="4" height="4" fill="#C4B5FD" opacity="0.25">
        <animate attributeName="opacity" values="0.1;0.4;0.1" dur="2s" repeatCount="indefinite"/>
      </rect>
      <rect x="832" y="544" width="4" height="4" fill="#C4B5FD" opacity="0.25">
        <animate attributeName="opacity" values="0.15;0.45;0.15" dur="2.8s" repeatCount="indefinite"/>
      </rect>
    </g>

    <!-- Layer 5: Vignette -->
    <rect width="1024" height="1024" fill="url(#vignette)"/>

    <!-- Layer 6: macOS translucent glass overlay -->
    <rect width="1024" height="1024" fill="url(#glassOverlay)"/>

    <!-- Layer 7: Inner edge highlight — macOS native depth -->
    <rect x="4" y="4" width="1016" height="1016" rx="220" ry="220" fill="none" stroke="url(#innerEdge)" stroke-width="1.5"/>

    <!-- Top-left specular highlight for glass -->
    <ellipse cx="360" cy="320" rx="280" ry="200" fill="white" opacity="0.012"/>

  </g>

  <!-- Outer squircle border — subtle dark edge -->
  <rect x="0" y="0" width="1024" height="1024" rx="224" ry="224" fill="none" stroke="#1E1E2E" stroke-width="1.5" opacity="0.6"/>
</svg>
